<svg xmlns="http://www.w3.org/2000/svg" xmlns:xlink="http://www.w3.org/1999/xlink" viewBox="0,0,256,256" width="48px" height="48px" fill-rule="nonzero"><g fill="#4f4f4f" fill-rule="nonzero" stroke="none" stroke-width="1" stroke-linecap="butt" stroke-linejoin="miter" stroke-miterlimit="10" stroke-dasharray="" stroke-dashoffset="0" font-family="none" font-weight="none" font-size="none" text-anchor="none" style="mix-blend-mode: normal"><g transform="scale(10.66667,10.66667)"><path d="M14.49219,1.99219c-0.0249,0.00075 -0.04971,0.00336 -0.07422,0.00781h-8.91797c-0.82253,0 -1.5,0.67747 -1.5,1.5v17c0,0.82253 0.67747,1.5 1.5,1.5h13c0.82253,0 1.5,-0.67747 1.5,-1.5v-12.91992c0.02976,-0.18123 -0.04223,-0.3642 -0.1875,-0.47656c-0.00194,-0.00132 -0.0039,-0.00262 -0.00586,-0.00391l-4.9082,-4.9082c-0.09591,-0.12738 -0.24682,-0.20138 -0.40625,-0.19922zM5.5,3h8.5v4.5c0.00003,0.27613 0.22387,0.49997 0.5,0.5h4.5v12.5c0,0.28147 -0.21853,0.5 -0.5,0.5h-13c-0.28147,0 -0.5,-0.21853 -0.5,-0.5v-17c0,-0.28147 0.21853,-0.5 0.5,-0.5zM15,3.70703l3.29297,3.29297h-3.29297z"></path></g></g></svg>