<svg width="24" height="24" viewBox="0 0 24 24" fill="none" xmlns="http://www.w3.org/2000/svg">
<path d="M11.8672 19.8281C7.46875 19.8281 3.89844 16.2578 3.89844 11.8594C3.89844 7.46094 7.46875 3.89062 11.8672 3.89062C16.2656 3.89062 19.8359 7.46094 19.8359 11.8594C19.8359 16.2578 16.2656 19.8281 11.8672 19.8281ZM7.17969 6.78906C7.57812 7.07812 8.07031 7.3125 8.63281 7.49219C8.98438 6.53906 9.44531 5.75781 9.98438 5.21094C8.92188 5.51562 7.96875 6.0625 7.17969 6.78906ZM13.75 5.21094C14.2891 5.75781 14.7578 6.53906 15.1016 7.49219C15.6641 7.3125 16.1562 7.07812 16.5547 6.78906C15.7656 6.0625 14.8125 5.51562 13.75 5.21094ZM9.64062 7.75C10.1719 7.84375 10.7422 7.90625 11.3594 7.92969V5.39844C10.6875 5.69531 10.0781 6.55469 9.64062 7.75ZM12.3828 5.39844V7.92969C12.9922 7.90625 13.5625 7.84375 14.0938 7.75C13.6562 6.55469 13.0469 5.69531 12.3828 5.39844ZM4.97656 11.3438H7.92969C7.96875 10.2969 8.10938 9.32031 8.33594 8.44531C7.60156 8.21094 6.96875 7.89844 6.48438 7.53125C5.63281 8.58594 5.08594 9.90625 4.97656 11.3438ZM15.8047 11.3438H18.7578C18.6484 9.90625 18.1016 8.58594 17.25 7.53125C16.7656 7.89844 16.1328 8.21094 15.3984 8.44531C15.625 9.32031 15.7656 10.2969 15.8047 11.3438ZM12.3828 11.3438H14.7578C14.7188 10.4062 14.5938 9.51562 14.3906 8.71094C13.7578 8.84375 13.0859 8.92969 12.3828 8.95312V11.3438ZM8.97656 11.3438H11.3594V8.95312C10.6484 8.92969 9.97656 8.84375 9.34375 8.71094C9.14844 9.51562 9.01562 10.4062 8.97656 11.3438ZM4.97656 12.3672C5.08594 13.8203 5.64062 15.1484 6.50781 16.2109C6.98438 15.8438 7.60938 15.5391 8.33594 15.3047C8.10938 14.4219 7.96875 13.4375 7.92969 12.3672H4.97656ZM8.97656 12.3672C9.00781 13.3203 9.14844 14.2266 9.35938 15.0391C9.98438 14.9141 10.6562 14.8281 11.3594 14.8047V12.3672H8.97656ZM12.3828 14.8047C13.0781 14.8281 13.7578 14.9141 14.375 15.0391C14.5859 14.2266 14.7266 13.3203 14.7578 12.3672H12.3828V14.8047ZM15.3984 15.3047C16.125 15.5391 16.75 15.8438 17.2266 16.2109C18.0938 15.1484 18.6484 13.8203 18.7578 12.3672H15.8047C15.7656 13.4375 15.625 14.4219 15.3984 15.3047ZM12.3828 15.8281V18.3281C13.0391 18.0312 13.6406 17.1719 14.0781 16.0078C13.5547 15.9062 12.9844 15.8516 12.3828 15.8281ZM9.65625 16.0078C10.0938 17.1719 10.6953 18.0312 11.3594 18.3281V15.8281C10.75 15.8516 10.1797 15.9062 9.65625 16.0078ZM15.0938 16.2578C14.75 17.1953 14.2891 17.9609 13.7578 18.5C14.8047 18.2031 15.75 17.6641 16.5312 16.9531C16.1328 16.6719 15.6484 16.4375 15.0938 16.2578ZM7.20312 16.9531C7.98438 17.6641 8.92969 18.2031 9.97656 18.5C9.44531 17.9609 8.98438 17.1953 8.64062 16.2578C8.08594 16.4375 7.60156 16.6719 7.20312 16.9531Z" fill="#333333"/>
</svg>
