<svg width="24" height="24" viewBox="0 0 24 24" fill="none" xmlns="http://www.w3.org/2000/svg">
<path d="M11.9141 19.2422C11.5078 19.2422 11.2188 18.9609 11.2188 18.5547V8.26562L11.2812 6.59375L8.9375 9.16406L7.15625 10.9141C7.03906 11.0391 6.85156 11.1016 6.66406 11.1016C6.27344 11.1016 5.99219 10.8047 5.99219 10.4219C5.99219 10.2344 6.0625 10.0703 6.21094 9.91406L11.3906 4.71875C11.5391 4.5625 11.7188 4.48438 11.9141 4.48438C12.1094 4.48438 12.2891 4.5625 12.4375 4.71875L17.625 9.91406C17.7734 10.0703 17.8359 10.2344 17.8359 10.4219C17.8359 10.8047 17.5547 11.1016 17.1641 11.1016C16.9766 11.1016 16.7969 11.0391 16.6719 10.9141L14.8906 9.16406L12.5547 6.60156L12.6094 8.26562V18.5547C12.6094 18.9609 12.3203 19.2422 11.9141 19.2422Z" fill="white"/>
</svg>
