<svg width="24" height="26" viewBox="0 0 24 26" fill="none" xmlns="http://www.w3.org/2000/svg">
<path d="M8.91406 21.2344C7.29688 21.2344 6.49219 20.4219 6.49219 18.7891V6.9375C6.49219 5.3125 7.30469 4.48438 8.91406 4.48438H12.625C13.5 4.48438 13.9922 4.61719 14.5859 5.22656L18.8906 9.60938C19.5156 10.25 19.6328 10.6875 19.6328 11.6953V18.7891C19.6328 20.4141 18.8281 21.2344 17.2109 21.2344H8.91406ZM8.96875 19.9766H17.1484C17.9609 19.9766 18.375 19.5469 18.375 18.7656V11.75H13.9219C12.9453 11.75 12.4531 11.2656 12.4531 10.2812V5.74219H8.97656C8.16406 5.74219 7.75 6.1875 7.75 6.96094V18.7656C7.75 19.5469 8.16406 19.9766 8.96875 19.9766ZM14.0625 10.5703H18.1328L13.6328 5.98438V10.1328C13.6328 10.4453 13.75 10.5703 14.0625 10.5703Z" fill="#333333"/>
</svg>
