<svg width="24" height="24" viewBox="0 0 24 24" fill="none" xmlns="http://www.w3.org/2000/svg">
<path d="M4.99219 11.8594C4.99219 11.3828 5.39062 10.9844 5.86719 10.9844H10.6562V6.19531C10.6562 5.71875 11.0547 5.32031 11.5312 5.32031C12.0078 5.32031 12.4062 5.71875 12.4062 6.19531V10.9844H17.1953C17.6719 10.9844 18.0703 11.3828 18.0703 11.8594C18.0703 12.3438 17.6719 12.7344 17.1953 12.7344H12.4062V17.5234C12.4062 18 12.0078 18.3984 11.5312 18.3984C11.0547 18.3984 10.6562 18 10.6562 17.5234V12.7344H5.86719C5.39062 12.7344 4.99219 12.3438 4.99219 11.8594Z" fill="#333333"/>
</svg>
