<svg width="24" height="24" viewBox="0 0 24 24" fill="none" xmlns="http://www.w3.org/2000/svg">
<path d="M4.49219 11.8594C4.49219 11.6615 4.57292 11.487 4.73438 11.3359L9.90625 6.17188C9.98958 6.08854 10.0729 6.02865 10.1562 5.99219C10.2448 5.95573 10.3359 5.9375 10.4297 5.9375C10.6224 5.9375 10.7839 6.0026 10.9141 6.13281C11.0495 6.25781 11.1172 6.41667 11.1172 6.60938C11.1172 6.70312 11.099 6.79427 11.0625 6.88281C11.0312 6.96615 10.9844 7.03906 10.9219 7.10156L9.17188 8.88281L6.07812 11.7109L5.91406 11.3203L8.42969 11.1641H18.3125C18.5156 11.1641 18.6797 11.2292 18.8047 11.3594C18.9349 11.4896 19 11.6562 19 11.8594C19 12.0625 18.9349 12.2292 18.8047 12.3594C18.6797 12.4896 18.5156 12.5547 18.3125 12.5547H8.42969L5.91406 12.3984L6.07812 12.0156L9.17188 14.8359L10.9219 16.6172C10.9844 16.6797 11.0312 16.7552 11.0625 16.8438C11.099 16.9271 11.1172 17.0156 11.1172 17.1094C11.1172 17.3021 11.0495 17.4609 10.9141 17.5859C10.7839 17.7161 10.6224 17.7812 10.4297 17.7812C10.2422 17.7812 10.0729 17.7083 9.92188 17.5625L4.73438 12.3828C4.57292 12.2318 4.49219 12.0573 4.49219 11.8594Z" fill="#333333"/>
</svg>
