<svg width="17" height="23" viewBox="0 0 17 23" fill="none" xmlns="http://www.w3.org/2000/svg">
<path d="M8.19629 18.0371C4.34766 18.0371 1.22363 14.9131 1.22363 11.0645C1.22363 7.21582 4.34766 4.0918 8.19629 4.0918C12.0449 4.0918 15.1689 7.21582 15.1689 11.0645C15.1689 14.9131 12.0449 18.0371 8.19629 18.0371ZM4.09473 6.62793C4.44336 6.88086 4.87402 7.08594 5.36621 7.24316C5.67383 6.40918 6.07715 5.72559 6.54883 5.24707C5.61914 5.51367 4.78516 5.99219 4.09473 6.62793ZM9.84375 5.24707C10.3154 5.72559 10.7256 6.40918 11.0264 7.24316C11.5186 7.08594 11.9492 6.88086 12.2979 6.62793C11.6074 5.99219 10.7734 5.51367 9.84375 5.24707ZM6.24805 7.46875C6.71289 7.55078 7.21191 7.60547 7.75195 7.62598V5.41113C7.16406 5.6709 6.63086 6.42285 6.24805 7.46875ZM8.64746 5.41113V7.62598C9.18066 7.60547 9.67969 7.55078 10.1445 7.46875C9.76172 6.42285 9.22852 5.6709 8.64746 5.41113ZM2.16699 10.6133H4.75098C4.78516 9.69727 4.9082 8.84277 5.10645 8.07715C4.46387 7.87207 3.91016 7.59863 3.48633 7.27734C2.74121 8.2002 2.2627 9.35547 2.16699 10.6133ZM11.6416 10.6133H14.2256C14.1299 9.35547 13.6514 8.2002 12.9062 7.27734C12.4824 7.59863 11.9287 7.87207 11.2861 8.07715C11.4844 8.84277 11.6074 9.69727 11.6416 10.6133ZM8.64746 10.6133H10.7256C10.6914 9.79297 10.582 9.01367 10.4043 8.30957C9.85059 8.42578 9.2627 8.50098 8.64746 8.52148V10.6133ZM5.66699 10.6133H7.75195V8.52148C7.12988 8.50098 6.54199 8.42578 5.98828 8.30957C5.81738 9.01367 5.70117 9.79297 5.66699 10.6133ZM2.16699 11.5088C2.2627 12.7803 2.74805 13.9424 3.50684 14.8721C3.92383 14.5508 4.4707 14.2842 5.10645 14.0791C4.9082 13.3066 4.78516 12.4453 4.75098 11.5088H2.16699ZM5.66699 11.5088C5.69434 12.3428 5.81738 13.1357 6.00195 13.8467C6.54883 13.7373 7.13672 13.6621 7.75195 13.6416V11.5088H5.66699ZM8.64746 13.6416C9.25586 13.6621 9.85059 13.7373 10.3906 13.8467C10.5752 13.1357 10.6982 12.3428 10.7256 11.5088H8.64746V13.6416ZM11.2861 14.0791C11.9219 14.2842 12.4688 14.5508 12.8857 14.8721C13.6445 13.9424 14.1299 12.7803 14.2256 11.5088H11.6416C11.6074 12.4453 11.4844 13.3066 11.2861 14.0791ZM8.64746 14.5371V16.7246C9.22168 16.4648 9.74805 15.7129 10.1309 14.6943C9.67285 14.6055 9.17383 14.5576 8.64746 14.5371ZM6.26172 14.6943C6.64453 15.7129 7.1709 16.4648 7.75195 16.7246V14.5371C7.21875 14.5576 6.71973 14.6055 6.26172 14.6943ZM11.0195 14.9131C10.7188 15.7334 10.3154 16.4033 9.85059 16.875C10.7666 16.6152 11.5938 16.1436 12.2773 15.5215C11.9287 15.2754 11.5049 15.0703 11.0195 14.9131ZM4.11523 15.5215C4.79883 16.1436 5.62598 16.6152 6.54199 16.875C6.07715 16.4033 5.67383 15.7334 5.37305 14.9131C4.8877 15.0703 4.46387 15.2754 4.11523 15.5215Z" fill="#4F4F4F"/>
</svg>
