<svg width="16" height="18" viewBox="0 0 16 18" fill="none" xmlns="http://www.w3.org/2000/svg">
<rect width="16" height="18" rx="3" fill="#BFEFFF"/>
<path d="M4.89062 13V11.9805L7.66211 9.14453C8.04492 8.75781 8.3418 8.43945 8.55273 8.18945C8.76758 7.93555 8.91797 7.71289 9.00391 7.52148C9.08984 7.32617 9.13281 7.12109 9.13281 6.90625V6.88867C9.13281 6.63086 9.07617 6.40039 8.96289 6.19727C8.84961 5.99414 8.6875 5.83594 8.47656 5.72266C8.26562 5.60547 8.01367 5.54688 7.7207 5.54688C7.42383 5.54688 7.16211 5.60938 6.93555 5.73438C6.70898 5.85547 6.5332 6.02539 6.4082 6.24414C6.2832 6.46289 6.2207 6.71875 6.2207 7.01172L6.21484 7.03516L4.80859 7.0293L4.80273 7.01172C4.80273 6.48438 4.92969 6.01953 5.18359 5.61719C5.4375 5.21484 5.78906 4.90039 6.23828 4.67383C6.6875 4.44727 7.20703 4.33398 7.79688 4.33398C8.34375 4.33398 8.83008 4.4375 9.25586 4.64453C9.68555 4.85156 10.0215 5.13672 10.2637 5.5C10.5059 5.86328 10.627 6.2832 10.627 6.75977V6.77734C10.627 7.09375 10.5664 7.4043 10.4453 7.70898C10.3242 8.00977 10.1172 8.33984 9.82422 8.69922C9.53516 9.05859 9.13477 9.48633 8.62305 9.98242L6.53125 12.0156L6.92969 11.3477V12.0156L6.53125 11.752H10.7559V13H4.89062Z" fill="#042FF4"/>
</svg>
