<svg width="16" height="32" viewBox="0 0 16 32" fill="none" xmlns="http://www.w3.org/2000/svg">
<rect y="7" width="16" height="18" rx="3" fill="#BFEFFF"/>
<path d="M4.89062 20V18.9805L7.66211 16.1445C8.04492 15.7578 8.3418 15.4395 8.55273 15.1895C8.76758 14.9355 8.91797 14.7129 9.00391 14.5215C9.08984 14.3262 9.13281 14.1211 9.13281 13.9062V13.8887C9.13281 13.6309 9.07617 13.4004 8.96289 13.1973C8.84961 12.9941 8.6875 12.8359 8.47656 12.7227C8.26562 12.6055 8.01367 12.5469 7.7207 12.5469C7.42383 12.5469 7.16211 12.6094 6.93555 12.7344C6.70898 12.8555 6.5332 13.0254 6.4082 13.2441C6.2832 13.4629 6.2207 13.7188 6.2207 14.0117L6.21484 14.0352L4.80859 14.0293L4.80273 14.0117C4.80273 13.4844 4.92969 13.0195 5.18359 12.6172C5.4375 12.2148 5.78906 11.9004 6.23828 11.6738C6.6875 11.4473 7.20703 11.334 7.79688 11.334C8.34375 11.334 8.83008 11.4375 9.25586 11.6445C9.68555 11.8516 10.0215 12.1367 10.2637 12.5C10.5059 12.8633 10.627 13.2832 10.627 13.7598V13.7773C10.627 14.0938 10.5664 14.4043 10.4453 14.709C10.3242 15.0098 10.1172 15.3398 9.82422 15.6992C9.53516 16.0586 9.13477 16.4863 8.62305 16.9824L6.53125 19.0156L6.92969 18.3477V19.0156L6.53125 18.752H10.7559V20H4.89062Z" fill="#042FF4"/>
</svg>
