<svg width="38" height="40" viewBox="0 0 38 40" fill="none" xmlns="http://www.w3.org/2000/svg">
<path d="M31.9322 7.32208V20V34.3992C31.8987 34.8626 31.7111 36.756 30.1031 38.3052C28.5822 39.7749 26.7799 39.9669 26.2908 40H24.455H24.4148H18.7801C19.2692 39.9669 21.0648 39.7749 22.5924 38.3052C24.2004 36.756 24.388 34.856 24.4215 34.3992V32.6779V20V5.60079C24.455 5.13737 24.6426 3.24396 26.2506 1.6948C27.7715 0.225091 29.5671 0.0331016 30.0562 0H31.892H31.9322H37.5669C37.0778 0.0331016 35.2822 0.225091 33.7546 1.6948C32.1466 3.24396 31.959 5.14399 31.9255 5.60079V7.32208H31.9322ZM22.5388 5.60079C22.5723 5.13737 22.7599 3.24396 24.3679 1.6948C25.8888 0.225091 27.6844 0.0331016 28.1735 0H22.5388H22.4986H20.6628C20.1737 0.0331016 18.3781 0.225091 16.8505 1.6948C15.2425 3.24396 15.0549 5.13737 15.0214 5.60079V20V32.6779V34.3992C14.9879 34.8626 14.8003 36.756 13.1923 38.3052C11.6714 39.7749 9.8691 39.9669 9.38 40H15.0147H15.0549H16.8907C17.3798 39.9669 19.1754 39.7749 20.703 38.3052C22.311 36.756 22.4986 34.8626 22.5321 34.3992V20V7.32208V5.60079H22.5388ZM13.1454 5.60079C13.1789 5.13737 13.3665 3.24396 14.9745 1.6948C16.4954 0.225091 18.2977 0.0331016 18.7868 0H13.1521H13.1119H11.2761C10.787 0.0331016 8.9914 0.225091 7.4638 1.6948C5.8558 3.24396 5.6682 5.13737 5.6347 5.60079V20V32.6779V34.3992C5.6012 34.8626 5.4136 36.756 3.8056 38.3052C2.2847 39.7749 0.4891 39.9669 0 40H5.6347H5.6749H7.5107C7.9998 39.9669 9.7954 39.7749 11.323 38.3052C12.931 36.756 13.1186 34.8626 13.1521 34.3992V20V7.32208V5.60079H13.1454Z" fill="url(#paint0_linear_194_1670)"/>
<defs>
<linearGradient id="paint0_linear_194_1670" x1="0" y1="20.0011" x2="37.5684" y2="20.0011" gradientUnits="userSpaceOnUse">
<stop offset="0.1173" stop-color="#042FF4"/>
<stop offset="0.7961" stop-color="#0EF9DA"/>
</linearGradient>
</defs>
</svg>
